# File created by Blade
# Date/Time:  Wed Jan 28 15:39:58 2015
#---------------------------------------------------------
:version 1.10
:name HOM
:units
  mass 1.0
  length 1.000000
  angle deg
:documentation
     Acclaim Skeleton File
:root
   axis xyz
   order TX TY TZ RX RY RZ
   position 0.000000 0.000000 0.000000
   orientation 0 0 0
:bonedata
   begin
      id 1
      name Spine_dum
      direction 0.000000 1.000000 0.000000
      length 6.864287
      axis 0.0 0.0 0.0 xyz
   end
   begin
      id 2
      name LeftUpLeg_dum
      direction 1.000000 0.000000 0.000000
      length 4.117376
      axis 0.0 0.0 0.0 xyz
   end
   begin
      id 3
      name RightUpLeg_dum
      direction -1.000000 0.000000 0.000000
      length 4.117376
      axis 0.0 0.0 0.0 xyz
   end
   begin
      id 4
      name Spine
      direction 0.000000 1.000000 0.000000
      length 0.000000
      axis 0.0 0.0 0.0 xyz
      dof rx ry rz
   end
   begin
      id 5
      name Spine_dum1
      direction 0.000000 1.000000 0.000000
      length 15.393827
      axis 0.0 0.0 0.0 xyz
   end
   begin
      id 6
      name Spine_dum2
      direction 0.000000 1.000000 0.000000
      length 9.314826
      axis 0.0 0.0 0.0 xyz
   end
   begin
      id 7
      name Spine_dum3
      direction 0.000000 1.000000 0.000000
      length 9.314826
      axis 0.0 0.0 0.0 xyz
   end
   begin
      id 8
      name Head
      direction 0.000000 1.000000 0.000000
      length 4.527550
      axis 0.0 0.0 0.0 xyz
      dof rx ry rz
   end
   begin
      id 9
      name LeftShoulder
      direction 1.000000 0.000000 0.000000
      length 8.275398
      axis 0.0 0.0 -90.0 xyz
      dof rx ry rz
   end
   begin
      id 10
      name LeftArm
      direction 1.000000 0.000000 0.000000
      length 12.002200
      axis 0.0 0.0 -90.0 xyz
      dof rx ry rz
   end
   begin
      id 11
      name LeftForeArm
      direction 1.000000 0.000000 0.000000
      length 10.144633
      axis 0.0 0.0 -90.0 xyz
      dof ry rz rx
   end
   begin
      id 12
      name LeftHand
      direction 0.000000 0.000000 0.000000
      length 0.000000
      axis 0.0 0.0 -90.0 xyz
      dof rx ry rz
   end
   begin
      id 13
      name LeftHand_dum1
      direction 0.000000 0.000000 0.000000
      length 0.000000
      axis 0.0 0.0 -90.0 xyz
   end
   begin
      id 14
      name LeftHand_dum2
      direction 1.000000 0.000000 0.000000
      length 3.937000
      axis 0.0 0.0 -90.0 xyz
   end
   begin
      id 15
      name LeftHandThumb1
      direction 0.000000 0.000000 1.000000
      length 3.937000
      axis 0.0 0.0 -90.0 xyz
      dof rx rz ry
   end
   begin
      id 16
      name RightShoulder
      direction -1.000000 0.000000 0.000000
      length 8.275398
      axis 0.0 0.0 90.0 xyz
      dof rx ry rz
   end
   begin
      id 17
      name RightArm
      direction -1.000000 0.000000 0.000000
      length 12.002200
      axis 0.0 0.0 90.0 xyz
      dof rx ry rz
   end
   begin
      id 18
      name RightForeArm
      direction -1.000000 0.000000 0.000000
      length 10.144633
      axis 0.0 0.0 90.0 xyz
      dof ry rz rx
   end
   begin
      id 19
      name RightHand
      direction 0.000000 0.000000 0.000000
      length 0.000000
      axis 0.0 0.0 90.0 xyz
      dof rx ry rz
   end
   begin
      id 20
      name RightHand_dum1
      direction 0.000000 0.000000 0.000000
      length 0.000000
      axis 0.0 0.0 90.0 xyz
   end
   begin
      id 21
      name RightHand_dum2
      direction -1.000000 0.000000 0.000000
      length 3.937000
      axis 0.0 0.0 90.0 xyz
   end
   begin
      id 22
      name RightHandThumb1
      direction 0.000000 0.000000 1.000000
      length 3.937000
      axis 0.0 0.0 90.0 xyz
      dof rx rz ry
   end
   begin
      id 23
      name LeftUpLeg
      direction 0.000000 -1.000000 0.000000
      length 19.394322
      axis 0.0 0.0 0.0 xyz
      dof rx ry rz
   end
   begin
      id 24
      name LeftLeg
      direction 0.000000 -1.000000 0.000000
      length 17.609563
      axis 0.0 0.0 0.0 xyz
      dof rx ry rz
   end
   begin
      id 25
      name LeftFoot
      direction 0.000000 -0.258819 0.965926
      length 6.085393
      axis 15.0 0.0 0.0 xyz
      dof rx ry rz
   end
   begin
      id 26
      name LeftToeBase
      direction 0.000000 0.000000 1.000000
      length 2.952750
      axis 0.0 0.0 0.0 xyz
      dof rx ry rz
   end
   begin
      id 27
      name RightUpLeg
      direction 0.000000 -1.000000 0.000000
      length 19.394322
      axis 0.0 0.0 0.0 xyz
      dof rx ry rz
   end
   begin
      id 28
      name RightLeg
      direction 0.000000 -1.000000 0.000000
      length 17.609563
      axis 0.0 0.0 0.0 xyz
      dof rx ry rz
   end
   begin
      id 29
      name RightFoot
      direction 0.000000 -0.258819 0.965926
      length 6.085393
      axis 15.0 0.0 0.0 xyz
      dof rx ry rz
   end
   begin
      id 30
      name RightToeBase
      direction 0.000000 0.000000 1.000000
      length 2.952750
      axis 0.0 0.0 0.0 xyz
      dof rx ry rz
   end
:hierarchy
   begin
      root Spine_dum LeftUpLeg_dum RightUpLeg_dum
      Spine_dum Spine
      LeftUpLeg_dum LeftUpLeg
      RightUpLeg_dum RightUpLeg
      Spine Spine_dum1 Spine_dum2 Spine_dum3
      Spine_dum1 Head
      Spine_dum2 LeftShoulder
      Spine_dum3 RightShoulder
      LeftShoulder LeftArm
      LeftArm LeftForeArm
      LeftForeArm LeftHand
      LeftHand LeftHand_dum1 LeftHand_dum2
      LeftHand_dum1 LeftHandThumb1
      RightShoulder RightArm
      RightArm RightForeArm
      RightForeArm RightHand
      RightHand RightHand_dum1 RightHand_dum2
      RightHand_dum1 RightHandThumb1
      LeftUpLeg LeftLeg
      LeftLeg LeftFoot
      LeftFoot LeftToeBase
      RightUpLeg RightLeg
      RightLeg RightFoot
      RightFoot RightToeBase
   end

# File created by Blade
# Date/Time:  Wed Jan 28 15:40:07 2015
# Frame Rate: 120.000 fps
#------------------------------------------------------
:FULLY-SPECIFIED
:DEGREES
750
root -5.345461 40.216350 -14.808250 1.693181 -54.631682 41.225147
Spine 11.648910 0.902605 11.745898
Head -8.163905 -26.611028 -13.834264
LeftShoulder -17.717997 16.864160 -8.293122
LeftArm 10.420694 12.859049 -82.445563
LeftForeArm -6.827915 0.000000 8.867351
LeftHand 0.480101 -0.000000 -9.884069
LeftHandThumb1 -26.253704 0.000000 33.147579
RightShoulder -5.637918 11.230834 -37.200109
RightArm 14.954529 45.780530 47.221317
RightForeArm -9.734507 -0.000000 89.272958
RightHand -13.754457 -0.000000 -48.839411
RightHandThumb1 -24.326973 -0.000000 -32.862282
LeftUpLeg -18.450712 -11.006674 14.510906
LeftLeg 150.728535 -0.000000 -0.000000
LeftFoot 12.859474 -0.295138 -29.794050
LeftToeBase 13.759949 -0.000000 -0.000000
RightUpLeg -44.189536 -0.403075 -20.598374
RightLeg 22.835118 -0.000000 -0.000000
RightFoot -22.125145 -19.451455 12.871781
RightToeBase 9.277021 -0.000000 -0.000000
751
root -5.364497 40.231403 -14.809738 1.737120 -54.664220 41.359573
Spine 11.642332 0.893861 11.636764
Head -8.233361 -26.667989 -13.863729
LeftShoulder -17.639990 16.833261 -8.274337
LeftArm 10.282140 12.708981 -82.420005
LeftForeArm -6.804606 0.000000 8.962259
LeftHand 0.488564 -0.000000 -9.678836
LeftHandThumb1 -26.253704 0.000000 33.147579
RightShoulder -5.603698 11.212149 -37.195192
RightArm 15.208980 45.645670 47.328629
RightForeArm -9.680173 -0.000000 88.630299
RightHand -13.590492 -0.000000 -49.075768
RightHandThumb1 -24.326973 -0.000000 -32.862282
LeftUpLeg -18.407811 -10.883741 14.470847
LeftLeg 150.623863 -0.000000 -0.000000
LeftFoot 12.713060 0.055100 -29.847833
LeftToeBase 13.628937 -0.000000 -0.000000
RightUpLeg -44.226321 -0.409245 -20.681810
RightLeg 22.622025 -0.000000 -0.000000
RightFoot -22.042412 -19.428748 12.902406
RightToeBase 9.185473 -0.000000 -0.000000
752
root -5.381262 40.245372 -14.813658 1.873539 -54.673937 41.383199
Spine 11.636212 0.867903 11.659614
Head -8.281736 -26.707234 -14.073152
LeftShoulder -17.657967 16.902418 -8.331186
LeftArm 10.329378 12.655135 -82.354834
LeftForeArm -6.573228 -0.000000 9.015807
LeftHand 0.504566 -0.000000 -9.934586
LeftHandThumb1 -26.253704 0.000000 33.147579
RightShoulder -5.529968 11.387357 -37.305937
RightArm 15.220737 45.486188 47.335495
RightForeArm -9.655573 -0.000000 88.019395
RightHand -13.613966 -0.000000 -49.187580
RightHandThumb1 -24.326973 -0.000000 -32.862282
LeftUpLeg -18.409451 -10.478166 14.397578
LeftLeg 150.678538 -0.000000 -0.000000
LeftFoot 12.088018 0.984414 -29.658243
LeftToeBase 13.656639 -0.000000 -0.000000
RightUpLeg -44.241886 -0.452212 -20.687055
RightLeg 22.377591 -0.000000 -0.000000
RightFoot -21.950986 -19.401301 12.906429
RightToeBase 9.193992 -0.000000 -0.000000
753
root -5.398085 40.261247 -14.813044 2.007393 -54.688365 41.451276
Spine 11.613422 0.833851 11.657027
Head -8.383881 -26.707516 -14.213178
LeftShoulder -17.724670 16.983504 -8.420073
LeftArm 10.417046 12.672703 -82.245552
LeftForeArm -6.416633 -0.000000 9.050968
LeftHand 0.487154 -0.000000 -9.985777
LeftHandThumb1 -26.253704 0.000000 33.147579
RightShoulder -5.488764 11.483145 -37.364469
RightArm 15.435408 45.428215 47.444717
RightForeArm -9.600667 -0.000000 87.394645
RightHand -13.708119 0.000000 -48.848934
RightHandThumb1 -24.326973 -0.000000 -32.862282
LeftUpLeg -18.356324 -10.598575 14.515740
LeftLeg 150.623019 -0.000000 -0.000000
LeftFoot 12.088986 0.800633 -29.773518
LeftToeBase 13.637370 -0.000000 -0.000000
RightUpLeg -44.303235 -0.569238 -20.691631
RightLeg 22.166905 -0.000000 -0.000000
RightFoot -21.886243 -19.231582 13.000990
RightToeBase 9.279051 -0.000000 -0.000000
754
root -5.414422 40.276367 -14.812232 2.135136 -54.696946 41.517662
Spine 11.586497 0.816706 11.666232
Head -8.404994 -26.729555 -14.276333
LeftShoulder -17.683090 16.961981 -8.435115
LeftArm 10.309752 12.635099 -82.203041
LeftForeArm -6.343729 0.000000 9.140982
LeftHand 0.493029 -0.000000 -10.026809
LeftHandThumb1 -26.253704 0.000000 33.147579
RightShoulder -5.429049 11.521757 -37.396407
RightArm 15.627265 45.338214 47.475461
RightForeArm -9.474670 -0.000000 86.740729
RightHand -13.548358 -0.000000 -49.121127
RightHandThumb1 -24.326973 -0.000000 -32.862282
LeftUpLeg -18.307580 -10.558598 14.549933
LeftLeg 150.607130 -0.000000 -0.000000
LeftFoot 11.918308 1.017190 -29.789043
LeftToeBase 13.620630 -0.000000 -0.000000
RightUpLeg -44.360768 -0.745276 -20.656973
RightLeg 21.960027 -0.000000 -0.000000
RightFoot -21.796014 -19.041678 13.021605
RightToeBase 9.270967 -0.000000 -0.000000
755
root -5.428084 40.291095 -14.809232 2.258391 -54.699236 41.594258
Spine 11.593160 0.784170 11.718514
Head -8.531406 -26.821104 -14.476008
LeftShoulder -17.775222 17.032082 -8.538833
LeftArm 10.417768 12.650762 -82.107751
LeftForeArm -6.279642 -0.000000 9.177667
LeftHand 0.380918 -0.000000 -9.960643
LeftHandThumb1 -26.253704 0.000000 33.147579
RightShoulder -5.398117 11.633614 -37.492505
RightArm 15.815243 45.298468 47.559449
RightForeArm -9.394292 -0.000000 86.130167
RightHand -13.434627 -0.000000 -49.316552
RightHandThumb1 -24.326973 -0.000000 -32.862282
LeftUpLeg -18.259904 -10.434550 14.586715
LeftLeg 150.577607 -0.000000 -0.000000
LeftFoot 11.740985 1.398874 -29.775541
LeftToeBase 13.669750 -0.000000 -0.000000
RightUpLeg -44.434402 -1.002552 -20.581924
RightLeg 21.781408 -0.000000 -0.000000
RightFoot -21.709219 -18.766239 13.034215
RightToeBase 9.260805 -0.000000 -0.000000
756
root -5.442258 40.306359 -14.804428 2.360073 -54.724634 41.719962
Spine 11.576029 0.789138 11.741353
Head -8.605663 -26.867463 -14.661152
LeftShoulder -17.757154 16.964814 -8.535952
LeftArm 10.317052 12.678603 -82.084461
LeftForeArm -6.112160 0.000000 9.187015
LeftHand 0.344468 -0.000000 -10.058260
LeftHandThumb1 -26.253704 0.000000 33.147579
RightShoulder -5.356487 11.757022 -37.571641
RightArm 15.945657 45.251939 47.568113
RightForeArm -9.273864 -0.000000 85.522913
RightHand -13.395628 -0.000000 -49.499079
RightHandThumb1 -24.326973 -0.000000 -32.862282
LeftUpLeg -18.203109 -10.495913 14.704696
LeftLeg 150.535844 -0.000000 -0.000000
LeftFoot 11.842994 1.261979 -29.778577
LeftToeBase 13.642956 -0.000000 -0.000000
RightUpLeg -44.522779 -1.254528 -20.534442
RightLeg 21.582143 -0.000000 -0.000000
RightFoot -21.653363 -18.454118 13.094294
RightToeBase 9.501661 -0.000000 -0.000000
